<svg width="700" height="600" viewBox="0 0 700 600" xmlns="http://www.w3.org/2000/svg">
  <!-- Styles -->
  <style>
    .hub { fill: #f8f9fa; stroke: #343a40; stroke-width: 2; }
    .trans-up { fill: #fff5f5; stroke: #fa5252; stroke-width: 2; }
    .trans-down { fill: #e7f5ff; stroke: #228be6; stroke-width: 2; }
    .consumer { fill: #ebfbee; stroke: #40c057; stroke-width: 2; }
    .meter { fill: #f3f0ff; stroke: #7950f2; stroke-width: 2; }
    
    .node-text { font-family: 'Segoe UI', sans-serif; font-size: 13px; font-weight: 600; fill: #212529; text-anchor: middle; }
    .arrow { stroke: #868e96; stroke-width: 2; fill: none; marker-end: url(#arrowhead); }
    .label-text { font-family: 'Segoe UI', sans-serif; font-size: 11px; fill: #495057; text-anchor: middle; font-weight: 500; }
    .hv-line { stroke: #fa5252; stroke-width: 3; stroke-dasharray: 8,4; }
  </style>

  <defs>
    <marker id="arrowhead" markerWidth="10" markerHeight="7" refX="10" refY="3.5" orient="auto">
      <polygon points="0 0, 10 3.5, 0 7" fill="#868e96" />
    </marker>
  </defs>

  <!-- Power Hub -->
  <rect x="250" y="40" width="200" height="60" rx="8" class="hub" />
  <text x="350" y="75" class="node-text">POWER HUB</text>

  <!-- Step-Up -->
  <rect x="200" y="160" width="300" height="70" rx="8" class="trans-up" />
  <text x="350" y="195" class="node-text">STEP-UP TRANSFORMER</text>
  <text x="350" y="212" class="label-text">(0.415kV -> 11kV)</text>

  <!-- High Voltage Line -->
  <line x1="350" y1="230" x2="350" y2="310" class="hv-line" />
  <text x="450" y="275" class="label-text" style="fill: #fa5252;">11kV Transmission Line</text>

  <!-- Step-Down -->
  <rect x="200" y="310" width="300" height="70" rx="8" class="trans-down" />
  <text x="350" y="345" class="node-text">STEP-DOWN TRANSFORMER</text>
  <text x="350" y="362" class="label-text">(11kV -> 0.415kV)</text>

  <!-- Final Distribution -->
  <line x1="350" y1="380" x2="350" y2="450" class="arrow" />
  
  <rect x="250" y="450" width="200" height="60" rx="8" class="meter" />
  <text x="350" y="485" class="node-text">STS SMART METER</text>

  <line x1="450" y1="480" x2="550" y2="480" class="arrow" />
  
  <rect x="550" y="450" width="130" height="60" rx="8" class="consumer" />
  <text x="615" y="485" class="node-text">CONSUMER</text>

  <line x1="350" y1="100" x2="350" y2="160" class="arrow" />

</svg>
