<svg width="700" height="650" viewBox="0 0 700 650" xmlns="http://www.w3.org/2000/svg">
  <style>
    .hub { fill: #f8f9fa; stroke: #343a40; stroke-width: 2; }
    .trans-up { fill: #fff5f5; stroke: #fa5252; stroke-width: 2; }
    .trans-down { fill: #e7f5ff; stroke: #228be6; stroke-width: 2; }
    .consumer { fill: #ebfbee; stroke: #40c057; stroke-width: 2; }
    .meter { fill: #f3f0ff; stroke: #7950f2; stroke-width: 2; }
    .node-text { font-family: 'Segoe UI', system-ui, sans-serif; font-size: 16px; font-weight: 700; fill: #212529; text-anchor: middle; }
    .label-text { font-family: 'Segoe UI', sans-serif; font-size: 14px; fill: #495057; text-anchor: middle; font-weight: 600; }
    .arrow { stroke: #868e96; stroke-width: 2; fill: none; marker-end: url(#arrowhead); }
    .hv-line { stroke: #fa5252; stroke-width: 4; stroke-dasharray: 10,5; }
    .hv-label { font-family: 'Segoe UI', sans-serif; font-size: 13px; fill: #fa5252; font-weight: 800; text-anchor: middle; text-transform: uppercase; }
  </style>
  
  <defs>
    <marker id="arrowhead" markerWidth="10" markerHeight="7" refX="10" refY="3.5" orient="auto">
      <polygon points="0 0, 10 3.5, 0 7" fill="#868e96" />
    </marker>
  </defs>

  <!-- Power Hub -->
  <rect x="240" y="30" width="220" height="60" rx="10" class="hub" />
  <text x="350" y="67" class="node-text">GENERATION HUB</text>
  
  <line x1="350" y1="90" x2="350" y2="130" class="arrow" />
  
  <!-- Step-Up -->
  <rect x="210" y="130" width="280" height="75" rx="10" class="trans-up" />
  <text x="350" y="165" class="node-text">STEP-UP TRANSFORMER</text>
  <text x="350" y="185" class="label-text">(LV 0.415kV ➜ HV 11kV)</text>
  
  <!-- 11kV Line -->
  <line x1="350" y1="205" x2="350" y2="320" class="hv-line" />
  <rect x="260" y="245" width="180" height="30" fill="white" stroke="#fa5252" stroke-width="1" rx="15" />
  <text x="350" y="265" class="hv-label">11kV Distribution Line</text>
  
  <!-- Step-Down -->
  <rect x="210" y="320" width="280" height="75" rx="10" class="trans-down" />
  <text x="350" y="355" class="node-text">STEP-DOWN TRANSFORMER</text>
  <text x="350" y="375" class="label-text">(HV 11kV ➜ LV 0.415kV)</text>
  
  <line x1="350" y1="395" x2="350" y2="435" class="arrow" />
  
  <!-- Smart Meter -->
  <rect x="240" y="435" width="220" height="60" rx="10" class="meter" />
  <text x="350" y="472" class="node-text">STS SMART METER</text>
  
  <line x1="350" y1="495" x2="350" y2="535" class="arrow" />
  
  <!-- Consumer -->
  <rect x="240" y="535" width="220" height="70" rx="10" class="consumer" />
  <text x="350" y="572" class="node-text">END CONSUMER</text>
  <text x="350" y="592" class="label-text">(Residential / Industrial)</text>
</svg>